<svg aria-hidden="true" style="position: absolute; width: 0; height: 0; overflow: hidden;" version="1.1" xmlns="http://www.w3.org/2000/svg" xmlns:xlink="http://www.w3.org/1999/xlink">
<defs>
<symbol id="slim" viewBox="0 0 87 32">
<path d="M0.909 26.231l1.322-1.528c1.559 1.426 3.098 2.463 4.619 3.113 1.52 0.637 3.271 0.955 5.251 0.955 2.044 0 3.712-0.516 5.002-1.547s1.936-2.355 1.936-3.972c0-1.018-0.211-1.865-0.633-2.54-0.409-0.675-1.188-1.286-2.338-1.833-1.137-0.547-2.734-1.031-4.791-1.451-3.309-0.675-5.686-1.611-7.13-2.807-1.431-1.21-2.147-2.865-2.147-4.965 0-2.050 0.837-3.762 2.511-5.137s3.782-2.063 6.325-2.063c1.942 0 3.635 0.267 5.079 0.802 1.444 0.522 2.888 1.362 4.331 2.521l-1.284 1.604c-1.265-1.095-2.562-1.884-3.89-2.368-1.316-0.484-2.753-0.726-4.312-0.726-1.993 0-3.609 0.503-4.849 1.509-1.239 0.993-1.859 2.241-1.859 3.743 0 1.031 0.204 1.891 0.613 2.578 0.422 0.675 1.22 1.305 2.396 1.891 1.188 0.573 2.849 1.076 4.983 1.509 3.181 0.649 5.481 1.572 6.9 2.769 1.431 1.197 2.146 2.814 2.146 4.851 0 2.19-0.856 3.985-2.568 5.385-1.712 1.388-3.897 2.082-6.555 2.082-2.159 0-4.127-0.356-5.903-1.069-1.763-0.713-3.482-1.814-5.155-3.304z"></path>
<path d="M30.765 30.222v-28.55h1.917v28.55h-1.917z"></path>
<path d="M43.45 5.071v-2.616h2.376v2.616h-2.376zM43.68 30.222v-19.938h1.917v19.938h-1.917z"></path>
<path d="M56.306 30.222v-19.938h1.936v3.552c0.37-0.586 0.741-1.095 1.111-1.528s0.818-0.847 1.342-1.241c0.537-0.407 1.156-0.719 1.859-0.936 0.716-0.216 1.501-0.325 2.357-0.325 1.635 0 3.015 0.401 4.14 1.203 1.137 0.789 2.006 1.821 2.606 3.094 1.674-2.865 4.082-4.297 7.225-4.297 2.364 0 4.235 0.758 5.615 2.273s2.070 3.533 2.070 6.054v12.089h-1.916v-11.859c0-2.139-0.524-3.807-1.572-5.003s-2.498-1.795-4.351-1.795c-1.763 0-3.258 0.637-4.485 1.91s-1.84 2.986-1.84 5.137v11.611h-1.917v-11.974c0-2.062-0.53-3.692-1.591-4.889-1.048-1.197-2.466-1.795-4.255-1.795s-3.303 0.694-4.542 2.082c-1.239 1.375-1.859 3.068-1.859 5.080v11.497h-1.936z"></path>
</symbol>
<symbol id="mom" viewBox="0 0 108 32">
<path d="M40.647 19.594c0-1.561 0.295-3.058 0.884-4.49s1.387-2.678 2.393-3.738c1.006-1.074 2.235-1.926 3.687-2.557 1.452-0.645 2.997-0.967 4.636-0.967 2.17 0 4.14 0.537 5.908 1.611 1.782 1.060 3.162 2.492 4.14 4.297 0.992 1.79 1.488 3.738 1.488 5.844 0 2.091-0.496 4.032-1.488 5.822s-2.386 3.23-4.183 4.318c-1.782 1.074-3.766 1.611-5.951 1.611-1.624 0-3.155-0.315-4.592-0.945s-2.659-1.475-3.665-2.535c-1.006-1.060-1.804-2.306-2.393-3.738-0.575-1.447-0.863-2.958-0.863-4.533zM42.975 19.594c0 2.707 0.891 5.006 2.674 6.896 1.797 1.876 3.996 2.814 6.598 2.814 1.639 0 3.162-0.43 4.571-1.289 1.409-0.874 2.53-2.055 3.364-3.545s1.25-3.115 1.25-4.877c0-2.693-0.905-4.984-2.717-6.875-1.811-1.905-3.996-2.857-6.555-2.857-1.667 0-3.205 0.437-4.614 1.311-1.409 0.859-2.523 2.041-3.342 3.545-0.819 1.49-1.229 3.115-1.229 4.877z"></path>
<path d="M0.806 30.809v-30.809h2.156l12.419 18.219 12.398-18.219h2.178v30.809h-2.307v-26.748l-12.225 17.725h-0.172l-12.247-17.725v26.748h-2.199z"></path>
<path d="M73.955 30.809v-22.43h2.178v3.996c0.417-0.659 0.834-1.232 1.251-1.719s0.92-0.952 1.509-1.396c0.604-0.458 1.301-0.809 2.091-1.053 0.805-0.244 1.689-0.365 2.652-0.365 1.84 0 3.392 0.451 4.657 1.354 1.279 0.888 2.257 2.048 2.932 3.48 1.883-3.223 4.593-4.834 8.129-4.834 2.659 0 4.765 0.852 6.317 2.557s2.329 3.975 2.329 6.811v13.6h-2.156v-13.342c0-2.406-0.589-4.283-1.768-5.629s-2.81-2.020-4.894-2.020c-1.984 0-3.665 0.716-5.045 2.148s-2.070 3.359-2.070 5.779v13.063h-2.156v-13.471c0-2.32-0.596-4.154-1.79-5.5-1.179-1.346-2.774-2.020-4.786-2.020s-3.716 0.781-5.11 2.342c-1.394 1.547-2.091 3.452-2.091 5.715v12.934h-2.178z"></path>
</symbol>
<symbol id="slimMomDark" viewBox="0 0 33 32">
<path fill="#529d0b" style="fill: var(--color1, #529d0b)" d="M16.727 1.091c0.24 0 0.48 0 0.727 0 1.198 2.645 1.636 5.142 0.763 7.973-0.348 0.874-0.715 1.726-1.126 2.572 1.864 0.414 3.664 0.379 5.561 0.341 0.984 0.023 0.984 0.023 2.075 0.386 0.689 0.025 1.379 0.031 2.068 0.023 0.361-0.003 0.723-0.007 1.095-0.010 0.276-0.004 0.552-0.008 0.837-0.013-0.135-0.428-0.135-0.428-0.273-0.864-0.128-1.851 0.445-3.352 1.364-4.955 0.78-0.655 0.78-0.655 1.455-1.091-0.075 0.225-0.149 0.449-0.226 0.68-0.666 2.093-1.052 4.040-1.229 6.229 0.72-0.24 1.44-0.48 2.182-0.727-0.12-0.6-0.24-1.2-0.364-1.818 1.409 0.682 1.409 0.682 1.818 1.091 0.091 0.886 0.091 0.886 0 1.818-1.174 0.783-1.558 0.8-2.909 0.727 0.131 0.334 0.262 0.668 0.398 1.011 1.676 4.432 1.676 4.432 1.42 6.989-0.24-0.12-0.48-0.24-0.727-0.364 0-0.6 0-1.2 0-1.818-1.054 0.093-2.106 0.192-3.159 0.295-0.297 0.026-0.594 0.051-0.9 0.077-1.682 0.17-2.932 0.37-4.305 1.445-0.498 0.995-0.442 1.834-0.479 2.946-0.023 0.661-0.023 0.661-0.046 1.335-0.014 0.462-0.029 0.924-0.043 1.401-0.024 0.698-0.024 0.698-0.048 1.409-0.039 1.151-0.076 2.303-0.111 3.455-0.24 0-0.48 0-0.727 0-0.024-0.44-0.024-0.44-0.049-0.889-0.077-1.341-0.162-2.68-0.246-4.021-0.026-0.461-0.051-0.922-0.077-1.398-0.14-3.988-0.14-3.988-2.027-7.359-0.509-0.516-0.509-0.516-0.509-1.244-1.399-0.758-2.873-1.272-4.364-1.818-1.44 4.338-1.958 7.822 0.034 12.134 0.131 0.248 0.262 0.497 0.398 0.753 0.616 1.212 0.824 1.792 0.659 3.114-1.177-1.366-2.015-2.794-2.795-4.409-0.112-0.225-0.224-0.451-0.339-0.683-1.274-2.593-1.57-4.756-1.229-7.635 0.781-2.14 1.87-4.028 3.273-5.818-3.145-1.102-5.273-0.269-8.318 0.864-0.877 0.315-1.755 0.628-2.634 0.94-0.385 0.142-0.77 0.283-1.166 0.429-0.973 0.312-0.973 0.312-2.064 0.312 0-0.84 0-1.68 0-2.545 2.898-0.787 5.788-1.563 8.727-2.182 0-0.24 0-0.48 0-0.727-0.345-0.113-0.69-0.225-1.045-0.341-1.136-0.386-1.136-0.386-1.864-0.75 0.24-0.6 0.48-1.2 0.727-1.818 1.76 0.271 3.072 0.982 4.616 1.832 0.871 0.471 0.871 0.471 1.929-0.014 0.568-0.024 1.136-0.031 1.705-0.023 0.441 0.005 0.441 0.005 0.891 0.010 0.224 0.004 0.447 0.008 0.678 0.013 1.076-2.406 0.667-4.797 0-7.273zM14.909 10.182c0.24 0.24 0.48 0.48 0.727 0.727 0.12-0.24 0.24-0.48 0.364-0.727-0.36 0-0.72 0-1.091 0zM15.636 13.091c0 0.24 0 0.48 0 0.727 3.637 1.552 7.259 3.002 11.091 4 0.289 0.075 0.577 0.151 0.875 0.228 1.27 0.316 2.355 0.499 3.671 0.499-0.382-1.204-0.797-2.375-1.3-3.533-0.171-0.394-0.342-0.788-0.518-1.195-0.264 0.004-0.527 0.008-0.799 0.012-1.219 0.015-2.437 0.025-3.656 0.034-0.622 0.009-0.622 0.009-1.256 0.018-2.777 0.016-5.386-0.241-8.108-0.791z"></path>
<path fill="#ffffff" style="fill: var(--color2, #ffffff)" d="M14.909 12.364c0.24 0.12 0.48 0.24 0.727 0.364 0 0.36 0 0.72 0 1.091 0.192 0.064 0.384 0.127 0.582 0.193 1.524 0.507 3.046 1.018 4.566 1.536 0.648 0.219 1.295 0.438 1.943 0.658 0.322 0.11 0.644 0.221 0.976 0.335 2.023 0.682 4.023 1.215 6.115 1.643 0 0.24 0 0.48 0 0.727-0.517 0.045-0.517 0.045-1.045 0.091-1.801 0.258-3.531 0.876-5.136 1.727-0.845 1.268-0.836 1.844-0.878 3.345-0.014 0.439-0.028 0.879-0.043 1.332-0.011 0.459-0.023 0.918-0.034 1.391-0.014 0.463-0.028 0.927-0.043 1.404-0.034 1.146-0.065 2.291-0.094 3.437-0.24 0-0.48 0-0.727 0-0.024-0.44-0.024-0.44-0.049-0.889-0.077-1.341-0.162-2.68-0.246-4.021-0.026-0.461-0.051-0.922-0.077-1.398-0.14-3.988-0.14-3.988-2.027-7.359-0.509-0.516-0.509-0.516-0.509-1.244-1.399-0.758-2.873-1.272-4.364-1.818-1.44 4.338-1.958 7.822 0.034 12.134 0.131 0.248 0.262 0.497 0.398 0.753 0.616 1.212 0.824 1.792 0.659 3.114-1.177-1.366-2.015-2.794-2.795-4.409-0.112-0.225-0.224-0.451-0.339-0.683-1.275-2.595-1.566-4.755-1.229-7.635 1.338-3.854 1.338-3.854 2.983-4.848 0.216-0.080 0.431-0.16 0.653-0.243 0-0.24 0-0.48 0-0.727z"></path>
<path fill="#60a512" style="fill: var(--color3, #60a512)" d="M6.909 6.545c1.76 0.271 3.072 0.982 4.616 1.832 0.871 0.471 0.871 0.471 1.929-0.014 0.568-0.024 1.136-0.031 1.705-0.023 0.441 0.005 0.441 0.005 0.891 0.010 0.335 0.006 0.335 0.006 0.678 0.013 0.18 0.54 0.18 0.54 0.364 1.091-0.364 0.523-0.364 0.523-1.091 1.091-0.603 0.058-0.603 0.058-1.219 0.116-2.181 0.237-4.153 1.084-6.19 1.861-2.723 1.036-5.343 1.928-8.227 2.386 0-0.84 0-1.68 0-2.545 2.898-0.787 5.788-1.563 8.727-2.182 0-0.24 0-0.48 0-0.727-0.345-0.113-0.69-0.225-1.045-0.341-1.136-0.386-1.136-0.386-1.864-0.75 0.24-0.6 0.48-1.2 0.727-1.818z"></path>
<path fill="#ffffff" style="fill: var(--color4, #ffffff)" d="M14.909 12.364c0.24 0.12 0.48 0.24 0.727 0.364 0 0.36 0 0.72 0 1.091 0.48 0.24 0.96 0.48 1.455 0.727-0.12 0.24-0.24 0.48-0.364 0.727-1.080-0.18-1.080-0.18-2.182-0.364-1.44 4.338-1.958 7.822 0.034 12.134 0.131 0.248 0.262 0.497 0.398 0.753 0.616 1.212 0.824 1.792 0.659 3.114-1.177-1.366-2.015-2.794-2.795-4.409-0.112-0.225-0.224-0.451-0.339-0.683-1.275-2.595-1.566-4.755-1.229-7.635 1.338-3.854 1.338-3.854 2.983-4.848 0.216-0.080 0.431-0.16 0.653-0.243 0-0.24 0-0.48 0-0.727z"></path>
<path fill="#9cca3f" style="fill: var(--color5, #9cca3f)" d="M2.912 11.964c0.359 0.001 0.717 0.002 1.087 0.004 0.375 0.003 0.751 0.006 1.138 0.009 0.567 0.002 0.567 0.002 1.146 0.005 0.936 0.004 1.872 0.010 2.808 0.018-0.79 0.79-1.224 0.947-2.271 1.276-0.304 0.096-0.609 0.192-0.923 0.291-0.319 0.098-0.637 0.196-0.965 0.297-0.317 0.101-0.634 0.202-0.961 0.305-2.371 0.74-2.371 0.74-3.607 0.74 0-0.84 0-1.68 0-2.545 0.911-0.455 1.53-0.405 2.548-0.399z"></path>
<path fill="#79bb23" style="fill: var(--color6, #79bb23)" d="M12.727 10.545c-1.834 1.552-3.559 1.924-5.896 1.753-0.259-0.023-0.518-0.047-0.785-0.071-0.268-0.021-0.535-0.041-0.811-0.063-0.654-0.051-1.308-0.107-1.962-0.165 3.207-1.669 5.88-1.964 9.455-1.455z"></path>
<path fill="#ffffff" style="fill: var(--color7, #ffffff)" d="M29.818 13.455c0.12 0.36 0.24 0.72 0.364 1.091 0.24 0 0.48 0 0.727 0 0.981 2.382 1.65 4.322 1.455 6.909-0.24-0.12-0.48-0.24-0.727-0.364 0-0.6 0-1.2 0-1.818-1.44 0-2.88 0-4.364 0 0-0.12 0-0.24 0-0.364 1.98-0.18 1.98-0.18 4-0.364-0.308-0.57-0.615-1.14-0.932-1.727-0.917-1.701-0.917-1.701-0.76-2.756 0.078-0.201 0.157-0.401 0.237-0.608z"></path>
<path fill="#ffffff" style="fill: var(--color8, #ffffff)" d="M16.727 1.091c0.24 0 0.48 0 0.727 0 1.29 2.849 1.657 5.624 0.545 8.614-0.18 0.398-0.36 0.795-0.545 1.205-0.24 0-0.48 0-0.727 0-0.12 0.24-0.24 0.48-0.364 0.727 0-1.336 0.165-2.078 0.568-3.318 0.723-2.535 0.46-4.712-0.205-7.227z"></path>
<path fill="#7fbd24" style="fill: var(--color9, #7fbd24)" d="M6.909 6.545c1.367 0.211 2.375 0.601 3.568 1.295 0.287 0.165 0.575 0.331 0.871 0.501 0.215 0.127 0.43 0.254 0.652 0.385-0.891 0.445-1.506 0.424-2.5 0.432-0.471 0.008-0.471 0.008-0.952 0.016-0.957-0.088-1.545-0.328-2.366-0.811 0.24-0.6 0.48-1.2 0.727-1.818z"></path>
<path fill="#ffffff" style="fill: var(--color10, #ffffff)" d="M30.909 5.455c0.12 0.24 0.24 0.48 0.364 0.727-0.268 0.683-0.537 1.365-0.811 2.045-0.475 1.466-0.552 2.969-0.643 4.5-0.24 0-0.48 0-0.727 0-0.683-1.135-0.803-1.758-0.5-3.045 0.421-1.667 1.087-2.996 2.318-4.227z"></path>
<path fill="#54a905" style="fill: var(--color11, #54a905)" d="M31.636 9.818c1.409 0.682 1.409 0.682 1.818 1.091 0.091 0.886 0.091 0.886 0 1.818-1.174 0.783-1.558 0.8-2.909 0.727 0-0.24 0-0.48 0-0.727-0.24-0.12-0.48-0.24-0.727-0.364 0.72-0.24 1.44-0.48 2.182-0.727-0.12-0.6-0.24-1.2-0.364-1.818z"></path>
<path fill="#b1d256" style="fill: var(--color12, #b1d256)" d="M0.364 13.091c0.675-0.023 0.675-0.023 1.364-0.045 0.38-0.013 0.38-0.013 0.767-0.026 0.888 0.081 1.464 0.359 2.233 0.798-0.522 0.184-1.045 0.365-1.568 0.545-0.437 0.152-0.437 0.152-0.882 0.307-0.822 0.239-0.822 0.239-1.913 0.239 0-0.6 0-1.2 0-1.818z"></path>
<path fill="#8cc62f" style="fill: var(--color13, #8cc62f)" d="M6.301 11.202c0.291 0.002 0.581 0.005 0.881 0.007 0.3 0.006 0.6 0.012 0.909 0.018 0.306 0.003 0.611 0.007 0.926 0.010 0.752 0.009 1.504 0.022 2.256 0.036-1.776 1.184-3.112 1.087-5.159 0.932-0.273-0.019-0.545-0.038-0.826-0.058-0.672-0.047-1.343-0.097-2.015-0.147 1.061-0.606 1.809-0.816 3.028-0.798z"></path>
<path fill="#ffffff" style="fill: var(--color14, #ffffff)" d="M13.455 25.455c1.282 1.282 2.122 2.918 2.273 4.727-0.030 0.24-0.060 0.48-0.091 0.727-1.506-1.758-2.316-3.104-2.182-5.455z"></path>
<path fill="#a8cf49" style="fill: var(--color15, #a8cf49)" d="M0.364 12.364c2.28 0.12 4.56 0.24 6.909 0.364-1.755 1.17-2.755 1.131-4.818 0.75-0.392-0.071-0.784-0.142-1.188-0.214-0.298-0.057-0.596-0.113-0.903-0.172 0-0.24 0-0.48 0-0.727z"></path>
<path fill="#aad343" style="fill: var(--color16, #aad343)" d="M6.909 6.545c1.484 0.201 1.787 0.332 2.909 1.455-1.2 0.12-2.4 0.24-3.636 0.364 0.24-0.6 0.48-1.2 0.727-1.818z"></path>
<path fill="#4f8f09" style="fill: var(--color17, #4f8f09)" d="M13.455 8.364c1.080 0 2.16 0 3.273 0 0 0.36 0 0.72 0 1.091-1.023 0.068-1.023 0.068-2.182 0-0.36-0.36-0.72-0.72-1.091-1.091z"></path>
<path fill="#ffffff" style="fill: var(--color18, #ffffff)" d="M28.727 9.455c0.24 0 0.48 0 0.727 0 0.12 1.080 0.24 2.16 0.364 3.273-0.24 0-0.48 0-0.727 0-0.589-0.935-0.743-1.337-0.591-2.455 0.075-0.27 0.15-0.54 0.227-0.818z"></path>
<path fill="#bbda5f" style="fill: var(--color19, #bbda5f)" d="M0.364 13.091c0.9 0.18 0.9 0.18 1.818 0.364 0.12 0.36 0.24 0.72 0.364 1.091-0.72 0.12-1.44 0.24-2.182 0.364 0-0.6 0-1.2 0-1.818z"></path>
</symbol>
<symbol id="heart" viewBox="0 0 32 32">
<path d="M23.6 2c-3.363 0-6.258 2.736-7.599 5.594-1.342-2.858-4.237-5.594-7.601-5.594-4.637 0-8.4 3.764-8.4 8.401 0 9.433 9.516 11.906 16.001 21.232 6.13-9.268 15.999-12.1 15.999-21.232 0-4.637-3.763-8.401-8.4-8.401z"></path>
</symbol>
</defs>
</svg>