<svg xmlns="http://www.w3.org/2000/svg" xmlns:xlink="http://www.w3.org/1999/xlink" width="500" zoomAndPan="magnify" viewBox="0 0 375 374.999991" height="500" preserveAspectRatio="xMidYMid meet" version="1.0"><defs><clipPath id="8e99a61099"><path d="M 161.578125 107.21875 L 277 107.21875 L 277 257.21875 L 161.578125 257.21875 Z M 161.578125 107.21875 " clip-rule="nonzero"/></clipPath><clipPath id="be0213b931"><path d="M 185 166.097656 L 198 166.097656 L 198 186 L 185 186 Z M 185 166.097656 " clip-rule="nonzero"/></clipPath><clipPath id="96ba69aab0"><path d="M 186 169 L 225.234375 169 L 225.234375 186 L 186 186 Z M 186 169 " clip-rule="nonzero"/></clipPath><clipPath id="db861a1963"><path d="M 97.734375 180 L 137 180 L 137 198 L 97.734375 198 Z M 97.734375 180 " clip-rule="nonzero"/></clipPath></defs><g clip-path="url(#8e99a61099)"><path fill="#231f20" d="M 173.03125 112.65625 C 169.773438 112.65625 167.125 115.308594 167.125 118.570312 L 167.125 245.894531 C 167.125 249.15625 169.773438 251.808594 173.03125 251.808594 L 265.65625 251.808594 C 268.910156 251.808594 271.5625 249.15625 271.5625 245.894531 L 271.5625 118.570312 C 271.5625 115.308594 268.910156 112.65625 265.65625 112.65625 Z M 265.65625 257.238281 L 173.03125 257.238281 C 166.785156 257.238281 161.703125 252.152344 161.703125 245.894531 L 161.703125 118.570312 C 161.703125 112.316406 166.785156 107.226562 173.03125 107.226562 L 265.65625 107.226562 C 271.898438 107.226562 276.980469 112.316406 276.980469 118.570312 L 276.980469 245.894531 C 276.980469 252.152344 271.898438 257.238281 265.65625 257.238281 " fill-opacity="1" fill-rule="nonzero"/></g><path fill="#231f20" d="M 176.378906 146.5 L 262.304688 146.5 L 262.304688 125.058594 L 176.378906 125.058594 Z M 265.195312 149.398438 L 173.488281 149.398438 L 173.488281 122.164062 L 265.195312 122.164062 L 265.195312 149.398438 " fill-opacity="1" fill-rule="nonzero"/><path fill="#231f20" d="M 179.785156 162.265625 C 177.90625 162.265625 176.378906 163.796875 176.378906 165.675781 L 176.378906 166.589844 C 176.378906 168.46875 177.90625 170 179.785156 170 L 186.984375 170 C 188.863281 170 190.390625 168.46875 190.390625 166.589844 L 190.390625 165.675781 C 190.390625 163.796875 188.863281 162.265625 186.984375 162.265625 Z M 186.984375 172.898438 L 179.785156 172.898438 C 176.3125 172.898438 173.488281 170.066406 173.488281 166.589844 L 173.488281 165.675781 C 173.488281 162.199219 176.3125 159.371094 179.785156 159.371094 L 186.984375 159.371094 C 190.457031 159.371094 193.28125 162.199219 193.28125 165.675781 L 193.28125 166.589844 C 193.28125 170.066406 190.457031 172.898438 186.984375 172.898438 " fill-opacity="1" fill-rule="nonzero"/><path fill="#231f20" d="M 204.4375 162.265625 C 202.558594 162.265625 201.03125 163.796875 201.03125 165.675781 L 201.03125 166.589844 C 201.03125 168.46875 202.558594 170 204.4375 170 L 211.636719 170 C 213.515625 170 215.042969 168.46875 215.042969 166.589844 L 215.042969 165.675781 C 215.042969 163.796875 213.515625 162.265625 211.636719 162.265625 Z M 211.636719 172.898438 L 204.4375 172.898438 C 200.964844 172.898438 198.140625 170.066406 198.140625 166.589844 L 198.140625 165.675781 C 198.140625 162.199219 200.964844 159.371094 204.4375 159.371094 L 211.636719 159.371094 C 215.109375 159.371094 217.933594 162.199219 217.933594 165.675781 L 217.933594 166.589844 C 217.933594 170.066406 215.109375 172.898438 211.636719 172.898438 " fill-opacity="1" fill-rule="nonzero"/><path fill="#231f20" d="M 229.085938 162.265625 C 227.207031 162.265625 225.679688 163.796875 225.679688 165.675781 L 225.679688 166.589844 C 225.679688 168.46875 227.207031 170 229.085938 170 L 236.285156 170 C 238.164062 170 239.691406 168.46875 239.691406 166.589844 L 239.691406 165.675781 C 239.691406 163.796875 238.164062 162.265625 236.285156 162.265625 Z M 236.285156 172.898438 L 229.085938 172.898438 C 225.613281 172.898438 222.789062 170.066406 222.789062 166.589844 L 222.789062 165.675781 C 222.789062 162.199219 225.613281 159.371094 229.085938 159.371094 L 236.285156 159.371094 C 239.757812 159.371094 242.582031 162.199219 242.582031 165.675781 L 242.582031 166.589844 C 242.582031 170.066406 239.757812 172.898438 236.285156 172.898438 " fill-opacity="1" fill-rule="nonzero"/><path fill="#231f20" d="M 253.738281 162.265625 C 251.859375 162.265625 250.332031 163.796875 250.332031 165.675781 L 250.332031 166.589844 C 250.332031 168.46875 251.859375 170 253.738281 170 L 260.9375 170 C 262.816406 170 264.34375 168.46875 264.34375 166.589844 L 264.34375 165.675781 C 264.34375 163.796875 262.816406 162.265625 260.9375 162.265625 Z M 260.9375 172.898438 L 253.738281 172.898438 C 250.265625 172.898438 247.441406 170.066406 247.441406 166.589844 L 247.441406 165.675781 C 247.441406 162.199219 250.265625 159.371094 253.738281 159.371094 L 260.9375 159.371094 C 264.410156 159.371094 267.234375 162.199219 267.234375 165.675781 L 267.234375 166.589844 C 267.234375 170.066406 264.410156 172.898438 260.9375 172.898438 " fill-opacity="1" fill-rule="nonzero"/><path fill="#231f20" d="M 179.785156 182.410156 C 177.90625 182.410156 176.378906 183.9375 176.378906 185.820312 L 176.378906 186.730469 C 176.378906 188.613281 177.90625 190.144531 179.785156 190.144531 L 186.984375 190.144531 C 188.863281 190.144531 190.390625 188.613281 190.390625 186.730469 L 190.390625 185.820312 C 190.390625 183.9375 188.863281 182.410156 186.984375 182.410156 Z M 186.984375 193.039062 L 179.785156 193.039062 C 176.3125 193.039062 173.488281 190.210938 173.488281 186.730469 L 173.488281 185.820312 C 173.488281 182.34375 176.3125 179.511719 179.785156 179.511719 L 186.984375 179.511719 C 190.457031 179.511719 193.28125 182.34375 193.28125 185.820312 L 193.28125 186.730469 C 193.28125 190.210938 190.457031 193.039062 186.984375 193.039062 " fill-opacity="1" fill-rule="nonzero"/><path fill="#231f20" d="M 204.4375 182.410156 C 202.558594 182.410156 201.03125 183.9375 201.03125 185.820312 L 201.03125 186.730469 C 201.03125 188.613281 202.558594 190.144531 204.4375 190.144531 L 211.636719 190.144531 C 213.515625 190.144531 215.042969 188.613281 215.042969 186.730469 L 215.042969 185.820312 C 215.042969 183.9375 213.515625 182.410156 211.636719 182.410156 Z M 211.636719 193.039062 L 204.4375 193.039062 C 200.964844 193.039062 198.140625 190.210938 198.140625 186.730469 L 198.140625 185.820312 C 198.140625 182.34375 200.964844 179.511719 204.4375 179.511719 L 211.636719 179.511719 C 215.109375 179.511719 217.933594 182.34375 217.933594 185.820312 L 217.933594 186.730469 C 217.933594 190.210938 215.109375 193.039062 211.636719 193.039062 " fill-opacity="1" fill-rule="nonzero"/><path fill="#231f20" d="M 229.085938 182.410156 C 227.207031 182.410156 225.679688 183.9375 225.679688 185.820312 L 225.679688 186.730469 C 225.679688 188.613281 227.207031 190.144531 229.085938 190.144531 L 236.285156 190.144531 C 238.164062 190.144531 239.691406 188.613281 239.691406 186.730469 L 239.691406 185.820312 C 239.691406 183.9375 238.164062 182.410156 236.285156 182.410156 Z M 236.285156 193.039062 L 229.085938 193.039062 C 225.613281 193.039062 222.789062 190.210938 222.789062 186.730469 L 222.789062 185.820312 C 222.789062 182.34375 225.613281 179.511719 229.085938 179.511719 L 236.285156 179.511719 C 239.757812 179.511719 242.582031 182.34375 242.582031 185.820312 L 242.582031 186.730469 C 242.582031 190.210938 239.757812 193.039062 236.285156 193.039062 " fill-opacity="1" fill-rule="nonzero"/><path fill="#231f20" d="M 253.738281 182.410156 C 251.859375 182.410156 250.332031 183.9375 250.332031 185.820312 L 250.332031 186.730469 C 250.332031 188.613281 251.859375 190.144531 253.738281 190.144531 L 260.9375 190.144531 C 262.816406 190.144531 264.34375 188.613281 264.34375 186.730469 L 264.34375 185.820312 C 264.34375 183.9375 262.816406 182.410156 260.9375 182.410156 Z M 260.9375 193.039062 L 253.738281 193.039062 C 250.265625 193.039062 247.441406 190.210938 247.441406 186.730469 L 247.441406 185.820312 C 247.441406 182.34375 250.265625 179.511719 253.738281 179.511719 L 260.9375 179.511719 C 264.410156 179.511719 267.234375 182.34375 267.234375 185.820312 L 267.234375 186.730469 C 267.234375 190.210938 264.410156 193.039062 260.9375 193.039062 " fill-opacity="1" fill-rule="nonzero"/><path fill="#231f20" d="M 179.785156 202.550781 C 177.90625 202.550781 176.378906 204.078125 176.378906 205.960938 L 176.378906 206.875 C 176.378906 208.753906 177.90625 210.285156 179.785156 210.285156 L 186.984375 210.285156 C 188.863281 210.285156 190.390625 208.753906 190.390625 206.875 L 190.390625 205.960938 C 190.390625 204.078125 188.863281 202.550781 186.984375 202.550781 Z M 186.984375 213.179688 L 179.785156 213.179688 C 176.3125 213.179688 173.488281 210.351562 173.488281 206.875 L 173.488281 205.960938 C 173.488281 202.484375 176.3125 199.652344 179.785156 199.652344 L 186.984375 199.652344 C 190.457031 199.652344 193.28125 202.484375 193.28125 205.960938 L 193.28125 206.875 C 193.28125 210.351562 190.457031 213.179688 186.984375 213.179688 " fill-opacity="1" fill-rule="nonzero"/><path fill="#231f20" d="M 204.4375 202.550781 C 202.558594 202.550781 201.03125 204.078125 201.03125 205.960938 L 201.03125 206.875 C 201.03125 208.753906 202.558594 210.285156 204.4375 210.285156 L 211.636719 210.285156 C 213.515625 210.285156 215.042969 208.753906 215.042969 206.875 L 215.042969 205.960938 C 215.042969 204.078125 213.515625 202.550781 211.636719 202.550781 Z M 211.636719 213.179688 L 204.4375 213.179688 C 200.964844 213.179688 198.140625 210.351562 198.140625 206.875 L 198.140625 205.960938 C 198.140625 202.484375 200.964844 199.652344 204.4375 199.652344 L 211.636719 199.652344 C 215.109375 199.652344 217.933594 202.484375 217.933594 205.960938 L 217.933594 206.875 C 217.933594 210.351562 215.109375 213.179688 211.636719 213.179688 " fill-opacity="1" fill-rule="nonzero"/><path fill="#231f20" d="M 229.085938 202.550781 C 227.207031 202.550781 225.679688 204.078125 225.679688 205.960938 L 225.679688 206.875 C 225.679688 208.753906 227.207031 210.285156 229.085938 210.285156 L 236.285156 210.285156 C 238.164062 210.285156 239.691406 208.753906 239.691406 206.875 L 239.691406 205.960938 C 239.691406 204.078125 238.164062 202.550781 236.285156 202.550781 Z M 236.285156 213.179688 L 229.085938 213.179688 C 225.613281 213.179688 222.789062 210.351562 222.789062 206.875 L 222.789062 205.960938 C 222.789062 202.484375 225.613281 199.652344 229.085938 199.652344 L 236.285156 199.652344 C 239.757812 199.652344 242.582031 202.484375 242.582031 205.960938 L 242.582031 206.875 C 242.582031 210.351562 239.757812 213.179688 236.285156 213.179688 " fill-opacity="1" fill-rule="nonzero"/><path fill="#231f20" d="M 253.738281 202.550781 C 251.859375 202.550781 250.332031 204.078125 250.332031 205.960938 L 250.332031 227.015625 C 250.332031 228.894531 251.859375 230.425781 253.738281 230.425781 L 260.9375 230.425781 C 262.816406 230.425781 264.34375 228.894531 264.34375 227.015625 L 264.34375 205.960938 C 264.34375 204.078125 262.816406 202.550781 260.9375 202.550781 Z M 260.9375 233.324219 L 253.738281 233.324219 C 250.265625 233.324219 247.441406 230.492188 247.441406 227.015625 L 247.441406 205.960938 C 247.441406 202.484375 250.265625 199.652344 253.738281 199.652344 L 260.9375 199.652344 C 264.410156 199.652344 267.234375 202.484375 267.234375 205.960938 L 267.234375 227.015625 C 267.234375 230.492188 264.410156 233.324219 260.9375 233.324219 " fill-opacity="1" fill-rule="nonzero"/><path fill="#231f20" d="M 179.785156 222.691406 C 177.90625 222.691406 176.378906 224.222656 176.378906 226.101562 L 176.378906 227.015625 C 176.378906 228.894531 177.90625 230.425781 179.785156 230.425781 L 186.984375 230.425781 C 188.863281 230.425781 190.390625 228.894531 190.390625 227.015625 L 190.390625 226.101562 C 190.390625 224.222656 188.863281 222.691406 186.984375 222.691406 Z M 186.984375 233.324219 L 179.785156 233.324219 C 176.3125 233.324219 173.488281 230.492188 173.488281 227.015625 L 173.488281 226.101562 C 173.488281 222.625 176.3125 219.796875 179.785156 219.796875 L 186.984375 219.796875 C 190.457031 219.796875 193.28125 222.625 193.28125 226.101562 L 193.28125 227.015625 C 193.28125 230.492188 190.457031 233.324219 186.984375 233.324219 " fill-opacity="1" fill-rule="nonzero"/><path fill="#231f20" d="M 204.4375 222.691406 C 202.558594 222.691406 201.03125 224.222656 201.03125 226.101562 L 201.03125 227.015625 C 201.03125 228.894531 202.558594 230.425781 204.4375 230.425781 L 211.636719 230.425781 C 213.515625 230.425781 215.042969 228.894531 215.042969 227.015625 L 215.042969 226.101562 C 215.042969 224.222656 213.515625 222.691406 211.636719 222.691406 Z M 211.636719 233.324219 L 204.4375 233.324219 C 200.964844 233.324219 198.140625 230.492188 198.140625 227.015625 L 198.140625 226.101562 C 198.140625 222.625 200.964844 219.796875 204.4375 219.796875 L 211.636719 219.796875 C 215.109375 219.796875 217.933594 222.625 217.933594 226.101562 L 217.933594 227.015625 C 217.933594 230.492188 215.109375 233.324219 211.636719 233.324219 " fill-opacity="1" fill-rule="nonzero"/><path fill="#231f20" d="M 229.085938 222.691406 C 227.207031 222.691406 225.679688 224.222656 225.679688 226.101562 L 225.679688 227.015625 C 225.679688 228.894531 227.207031 230.425781 229.085938 230.425781 L 236.285156 230.425781 C 238.164062 230.425781 239.691406 228.894531 239.691406 227.015625 L 239.691406 226.101562 C 239.691406 224.222656 238.164062 222.691406 236.285156 222.691406 Z M 236.285156 233.324219 L 229.085938 233.324219 C 225.613281 233.324219 222.789062 230.492188 222.789062 227.015625 L 222.789062 226.101562 C 222.789062 222.625 225.613281 219.796875 229.085938 219.796875 L 236.285156 219.796875 C 239.757812 219.796875 242.582031 222.625 242.582031 226.101562 L 242.582031 227.015625 C 242.582031 230.492188 239.757812 233.324219 236.285156 233.324219 " fill-opacity="1" fill-rule="nonzero"/><path fill="#231f20" d="M 189.585938 249.433594 L 177.105469 249.433594 C 174.398438 249.433594 171.90625 248.066406 170.441406 245.78125 C 170.117188 245.277344 170.265625 244.605469 170.769531 244.28125 C 171.273438 243.957031 171.941406 244.105469 172.265625 244.609375 C 173.328125 246.269531 175.140625 247.261719 177.105469 247.261719 L 189.585938 247.261719 C 190.183594 247.261719 190.667969 247.746094 190.667969 248.347656 C 190.667969 248.945312 190.183594 249.433594 189.585938 249.433594 " fill-opacity="1" fill-rule="nonzero"/><path fill="#231f20" d="M 170.273438 241.886719 C 169.675781 241.886719 169.191406 241.402344 169.191406 240.800781 L 169.191406 234.941406 C 169.191406 234.339844 169.675781 233.855469 170.273438 233.855469 C 170.871094 233.855469 171.359375 234.339844 171.359375 234.941406 L 171.359375 240.800781 C 171.359375 241.402344 170.871094 241.886719 170.273438 241.886719 " fill-opacity="1" fill-rule="nonzero"/><path fill="#ffdd55" d="M 222.121094 210.867188 C 222.769531 227.675781 205.769531 267.761719 181.027344 264.046875 C 179.285156 263.785156 163.371094 261.734375 161.734375 261.152344 C 140.074219 253.386719 131.003906 216.601562 137.496094 199.742188 C 146.136719 177.292969 159.40625 176.277344 184.148438 179.992188 C 208.890625 183.710938 221.304688 189.613281 222.125 210.867188 " fill-opacity="1" fill-rule="nonzero"/><path fill="#88aa00" d="M 105.363281 218.308594 C 104.957031 232.535156 119.679688 266.296875 140.574219 262.941406 C 142.042969 262.703125 155.488281 260.832031 156.867188 260.324219 C 175.125 253.570312 182.484375 222.378906 176.851562 208.171875 C 169.351562 189.261719 158.121094 188.515625 137.222656 191.871094 C 116.328125 195.222656 105.875 200.324219 105.363281 218.308594 " fill-opacity="1" fill-rule="nonzero"/><path fill="#88aa00" d="M 136.867188 200.046875 C 137.972656 200.675781 140.125 200.460938 141.363281 199.351562 " fill-opacity="1" fill-rule="nonzero"/><g clip-path="url(#be0213b931)"><path fill="#33201e" d="M 185.621094 185.308594 C 185.675781 185.90625 186.875 185.859375 186.984375 185.574219 C 187.878906 171.511719 197.363281 167.523438 197.363281 167.523438 L 194.839844 166.148438 C 185.191406 170.316406 185.621094 185.308594 185.621094 185.308594 " fill-opacity="1" fill-rule="nonzero"/></g><g clip-path="url(#96ba69aab0)"><path fill="#27a050" d="M 213.535156 170.023438 C 215.433594 170.550781 217.246094 171.332031 218.941406 172.320312 C 221.316406 173.707031 223.449219 175.511719 225.230469 177.621094 C 220.675781 180.621094 214.710938 182.4375 208.03125 182.464844 C 202.21875 182.488281 196.730469 181.125 192.054688 178.824219 C 190.382812 179.746094 188.332031 181.578125 187 185.273438 L 186.152344 185.246094 C 186.152344 185.246094 187.6875 179.320312 191.773438 177.363281 C 195.222656 172.433594 200.921875 169.25 207.632812 169.226562 C 209.65625 169.21875 211.640625 169.496094 213.535156 170.023438 Z M 213.535156 170.023438 " fill-opacity="1" fill-rule="nonzero"/></g><path stroke-linecap="round" transform="matrix(1.412345, 0, 0, 1.418823, 60.409383, 122.966975)" fill="none" stroke-linejoin="round" d="M 90.544221 43.925193 C 89.802989 44.247313 88.453284 43.960984 87.748007 43.17358 " stroke="#33201e" stroke-width="0.57" stroke-opacity="1" stroke-miterlimit="4"/><path fill="#33201e" d="M 136.878906 197.566406 C 136.796875 198.160156 135.601562 198.050781 135.503906 197.761719 C 135.351562 183.667969 126.09375 179.183594 126.09375 179.183594 L 128.683594 177.945312 C 138.097656 182.617188 136.878906 197.566406 136.878906 197.566406 " fill-opacity="1" fill-rule="nonzero"/><g clip-path="url(#db861a1963)"><path fill="#27a050" d="M 109.808594 180.824219 C 107.886719 181.25 106.035156 181.929688 104.292969 182.828125 C 101.847656 184.089844 99.621094 185.777344 97.734375 187.792969 C 102.121094 191.027344 107.984375 193.15625 114.652344 193.539062 C 120.457031 193.867188 126.007812 192.800781 130.796875 190.75 C 132.421875 191.757812 134.375 193.695312 135.507812 197.460938 L 136.359375 197.476562 C 136.359375 197.476562 135.136719 191.476562 131.160156 189.308594 C 127.96875 184.199219 122.449219 180.71875 115.75 180.335938 C 113.726562 180.222656 111.734375 180.394531 109.8125 180.824219 Z M 109.808594 180.824219 " fill-opacity="1" fill-rule="nonzero"/></g><path stroke-linecap="round" transform="matrix(1.412345, 0, 0, 1.418823, 60.409383, 122.966975)" fill="none" stroke-linejoin="round" d="M 52.260153 52.465501 C 52.98479 52.826165 54.345559 52.611419 55.092322 51.862559 " stroke="#33201e" stroke-width="0.57" stroke-opacity="1" stroke-miterlimit="4"/></svg>