<svg width="100" height="80" viewBox="0 0 54 16" fill="none" xmlns="http://www.w3.org/2000/svg">
<path d="M0.794739 15.2036V0.059082H1.85084L7.93401 9.01486L14.0066 0.059082H15.0733V15.2036H13.9433V2.05512L7.95513 10.768H7.87065L1.87197 2.05512V15.2036H0.794739Z" fill="#FC842D"/>
<path d="M20.3099 9.69076C20.3099 8.92333 20.4542 8.18757 20.7429 7.4835C21.0316 6.77943 21.4223 6.16689 21.9152 5.64588C22.408 5.11783 23.01 4.69891 23.7211 4.38911C24.4322 4.07228 25.1891 3.91387 25.9917 3.91387C27.0549 3.91387 28.0195 4.17789 28.8855 4.70595C29.7585 5.22696 30.4344 5.93103 30.9132 6.81816C31.399 7.69825 31.6419 8.65578 31.6419 9.69076C31.6419 10.7187 31.399 11.6727 30.9132 12.5528C30.4274 13.4329 29.7444 14.1405 28.8643 14.6756C27.9913 15.2036 27.0197 15.4677 25.9495 15.4677C25.1539 15.4677 24.4041 15.3128 23.7 15.003C22.9959 14.6932 22.3975 14.2778 21.9046 13.7568C21.4118 13.2358 21.021 12.6232 20.7323 11.9191C20.4507 11.208 20.3099 10.4652 20.3099 9.69076ZM21.4505 9.69076C21.4505 11.0215 21.887 12.1515 22.76 13.0809C23.6401 14.0032 24.7174 14.4644 25.9917 14.4644C26.7944 14.4644 27.5407 14.2531 28.2307 13.8307C28.9207 13.4012 29.4698 12.8204 29.8782 12.0881C30.2866 11.3559 30.4907 10.5568 30.4907 9.69076C30.4907 8.36711 30.0472 7.2406 29.16 6.31123C28.2729 5.37481 27.2027 4.90661 25.9495 4.90661C25.1328 4.90661 24.3794 5.12135 23.6894 5.55083C22.9994 5.97327 22.4538 6.55413 22.0525 7.2934C21.6511 8.02564 21.4505 8.82476 21.4505 9.69076Z" fill="#FC842D"/>
<path d="M36.625 15.2036V4.17789H37.6917V6.14225C37.8959 5.81838 38.1 5.53675 38.3042 5.29737C38.5084 5.05798 38.7548 4.82916 39.0435 4.6109C39.3392 4.38559 39.6807 4.2131 40.0679 4.09341C40.4622 3.97371 40.8952 3.91387 41.3669 3.91387C42.2681 3.91387 43.0285 4.13565 43.6481 4.57921C44.2747 5.01574 44.7535 5.58603 45.0844 6.2901C46.0068 4.70595 47.3339 3.91387 49.0659 3.91387C50.3685 3.91387 51.3999 4.33279 52.1603 5.17063C52.9207 6.00848 53.3009 7.12443 53.3009 8.51849V15.2036H52.2448V8.64522C52.2448 7.46238 51.9562 6.54005 51.3788 5.87822C50.8015 5.2164 50.0024 4.88548 48.9815 4.88548C48.0098 4.88548 47.1861 5.23752 46.5102 5.94159C45.8343 6.64566 45.4963 7.59263 45.4963 8.78251V15.2036H44.4402V8.58185C44.4402 7.44126 44.148 6.54005 43.5636 5.87822C42.9863 5.2164 42.2048 4.88548 41.2191 4.88548C40.2334 4.88548 39.3991 5.2692 38.7161 6.03664C38.0332 6.79704 37.6917 7.73345 37.6917 8.84588V15.2036H36.625Z" fill="#FC842D"/>
</svg>
