<svg width="100" height="80" viewBox="0 0 48 16" fill="none" xmlns="http://www.w3.org/2000/svg">
<path d="M0 13.5815L0.728713 12.7366C1.58768 13.5252 2.43608 14.099 3.27393 14.4581C4.11177 14.8101 5.07635 14.9861 6.16766 14.9861C7.29417 14.9861 8.21298 14.701 8.92409 14.1307C9.6352 13.5604 9.99076 12.8282 9.99076 11.934C9.99076 11.3707 9.87459 10.9025 9.64224 10.5294C9.41694 10.1562 8.98746 9.81826 8.3538 9.51551C7.72717 9.21276 6.84708 8.94521 5.71353 8.71287C3.88999 8.33971 2.58042 7.82222 1.78482 7.1604C0.99626 6.49153 0.60198 5.57624 0.60198 4.41452C0.60198 3.28097 1.06315 2.33399 1.98548 1.5736C2.90781 0.813201 4.06953 0.433003 5.47063 0.433003C6.54081 0.433003 7.47371 0.580858 8.26931 0.876568C9.06491 1.16524 9.86051 1.62992 10.6561 2.27063L9.94851 3.15776C9.25148 2.55226 8.53685 2.11573 7.80462 1.84818C7.07943 1.58064 6.28735 1.44686 5.42838 1.44686C4.33003 1.44686 3.43938 1.72497 2.75644 2.28119C2.07349 2.83036 1.73201 3.52035 1.73201 4.35116C1.73201 4.92145 1.84466 5.3967 2.06997 5.7769C2.30231 6.15005 2.74235 6.49857 3.3901 6.82244C4.04488 7.13927 4.96018 7.41738 6.13597 7.65677C7.88911 8.01584 9.15644 8.52629 9.93795 9.18812C10.7265 9.84995 11.1208 10.7441 11.1208 11.8706C11.1208 13.0816 10.6491 14.0744 9.70561 14.8488C8.76216 15.6163 7.5582 16 6.09373 16C4.90385 16 3.81958 15.8029 2.84092 15.4086C1.86931 15.0143 0.922332 14.4053 0 13.5815Z" fill="#212121"/>
<path d="M16.4524 15.7888V0H17.5085V15.7888H16.4524Z" fill="#212121"/>
<path d="M23.4422 1.87987V0.433003H24.7517V1.87987H23.4422ZM23.5689 15.7888V4.76304H24.625V15.7888H23.5689Z" fill="#212121"/>
<path d="M30.5269 15.7888V4.76304H31.5936V6.72739C31.7978 6.40352 32.002 6.12189 32.2062 5.88251C32.4103 5.64312 32.6568 5.4143 32.9454 5.19604C33.2411 4.97074 33.5826 4.79824 33.9698 4.67855C34.3641 4.55886 34.7971 4.49901 35.2689 4.49901C36.1701 4.49901 36.9305 4.72079 37.55 5.16436C38.1767 5.60088 38.6554 6.17118 38.9863 6.87525C39.9087 5.29109 41.2359 4.49901 42.9679 4.49901C44.2704 4.49901 45.3019 4.91793 46.0623 5.75578C46.8227 6.59362 47.2029 7.70957 47.2029 9.10363V15.7888H46.1467V9.23036C46.1467 8.04752 45.8581 7.12519 45.2807 6.46337C44.7034 5.80154 43.9043 5.47063 42.8834 5.47063C41.9118 5.47063 41.088 5.82266 40.4121 6.52673C39.7362 7.2308 39.3982 8.17778 39.3982 9.36766V15.7888H38.3421V9.167C38.3421 8.0264 38.0499 7.12519 37.4656 6.46337C36.8882 5.80154 36.1067 5.47063 35.121 5.47063C34.1353 5.47063 33.301 5.85435 32.618 6.62178C31.9351 7.38218 31.5936 8.31859 31.5936 9.43102V15.7888H30.5269Z" fill="#212121"/>
</svg>
