<svg aria-hidden="true" style="position: absolute; width: 0; height: 0; overflow: hidden;" version="1.1" xmlns="http://www.w3.org/2000/svg" xmlns:xlink="http://www.w3.org/1999/xlink">
<defs>
<symbol id="slim" viewBox="0 0 87 32">
<path d="M0.909 26.231l1.322-1.528c1.559 1.426 3.098 2.463 4.619 3.113 1.52 0.637 3.271 0.955 5.251 0.955 2.044 0 3.712-0.516 5.002-1.547s1.936-2.355 1.936-3.972c0-1.018-0.211-1.865-0.633-2.54-0.409-0.675-1.188-1.286-2.338-1.833-1.137-0.547-2.734-1.031-4.791-1.451-3.309-0.675-5.686-1.611-7.13-2.807-1.431-1.21-2.147-2.865-2.147-4.965 0-2.050 0.837-3.762 2.511-5.137s3.782-2.063 6.325-2.063c1.942 0 3.635 0.267 5.079 0.802 1.444 0.522 2.888 1.362 4.331 2.521l-1.284 1.604c-1.265-1.095-2.562-1.884-3.89-2.368-1.316-0.484-2.753-0.726-4.312-0.726-1.993 0-3.609 0.503-4.849 1.509-1.239 0.993-1.859 2.241-1.859 3.743 0 1.031 0.204 1.891 0.613 2.578 0.422 0.675 1.22 1.305 2.396 1.891 1.188 0.573 2.849 1.076 4.983 1.509 3.181 0.649 5.481 1.572 6.9 2.769 1.431 1.197 2.146 2.814 2.146 4.851 0 2.19-0.856 3.985-2.568 5.385-1.712 1.388-3.897 2.082-6.555 2.082-2.159 0-4.127-0.356-5.903-1.069-1.763-0.713-3.482-1.814-5.155-3.304z"></path>
<path d="M30.765 30.222v-28.55h1.917v28.55h-1.917z"></path>
<path d="M43.45 5.071v-2.616h2.376v2.616h-2.376zM43.68 30.222v-19.938h1.917v19.938h-1.917z"></path>
<path d="M56.306 30.222v-19.938h1.936v3.552c0.37-0.586 0.741-1.095 1.111-1.528s0.818-0.847 1.342-1.241c0.537-0.407 1.156-0.719 1.859-0.936 0.716-0.216 1.501-0.325 2.357-0.325 1.635 0 3.015 0.401 4.14 1.203 1.137 0.789 2.006 1.821 2.606 3.094 1.674-2.865 4.082-4.297 7.225-4.297 2.364 0 4.235 0.758 5.615 2.273s2.070 3.533 2.070 6.054v12.089h-1.916v-11.859c0-2.139-0.524-3.807-1.572-5.003s-2.498-1.795-4.351-1.795c-1.763 0-3.258 0.637-4.485 1.91s-1.84 2.986-1.84 5.137v11.611h-1.917v-11.974c0-2.062-0.53-3.692-1.591-4.889-1.048-1.197-2.466-1.795-4.255-1.795s-3.303 0.694-4.542 2.082c-1.239 1.375-1.859 3.068-1.859 5.080v11.497h-1.936z"></path>
</symbol>
<symbol id="mom" viewBox="0 0 108 32">
<path d="M40.647 19.594c0-1.561 0.295-3.058 0.884-4.49s1.387-2.678 2.393-3.738c1.006-1.074 2.235-1.926 3.687-2.557 1.452-0.645 2.997-0.967 4.636-0.967 2.17 0 4.14 0.537 5.908 1.611 1.782 1.060 3.162 2.492 4.14 4.297 0.992 1.79 1.488 3.738 1.488 5.844 0 2.091-0.496 4.032-1.488 5.822s-2.386 3.23-4.183 4.318c-1.782 1.074-3.766 1.611-5.951 1.611-1.624 0-3.155-0.315-4.592-0.945s-2.659-1.475-3.665-2.535c-1.006-1.060-1.804-2.306-2.393-3.738-0.575-1.447-0.863-2.958-0.863-4.533zM42.975 19.594c0 2.707 0.891 5.006 2.674 6.896 1.797 1.876 3.996 2.814 6.598 2.814 1.639 0 3.162-0.43 4.571-1.289 1.409-0.874 2.53-2.055 3.364-3.545s1.25-3.115 1.25-4.877c0-2.693-0.905-4.984-2.717-6.875-1.811-1.905-3.996-2.857-6.555-2.857-1.667 0-3.205 0.437-4.614 1.311-1.409 0.859-2.523 2.041-3.342 3.545-0.819 1.49-1.229 3.115-1.229 4.877z"></path>
<path d="M0.806 30.809v-30.809h2.156l12.419 18.219 12.398-18.219h2.178v30.809h-2.307v-26.748l-12.225 17.725h-0.172l-12.247-17.725v26.748h-2.199z"></path>
<path d="M73.955 30.809v-22.43h2.178v3.996c0.417-0.659 0.834-1.232 1.251-1.719s0.92-0.952 1.509-1.396c0.604-0.458 1.301-0.809 2.091-1.053 0.805-0.244 1.689-0.365 2.652-0.365 1.84 0 3.392 0.451 4.657 1.354 1.279 0.888 2.257 2.048 2.932 3.48 1.883-3.223 4.593-4.834 8.129-4.834 2.659 0 4.765 0.852 6.317 2.557s2.329 3.975 2.329 6.811v13.6h-2.156v-13.342c0-2.406-0.589-4.283-1.768-5.629s-2.81-2.020-4.894-2.020c-1.984 0-3.665 0.716-5.045 2.148s-2.070 3.359-2.070 5.779v13.063h-2.156v-13.471c0-2.32-0.596-4.154-1.79-5.5-1.179-1.346-2.774-2.020-4.786-2.020s-3.716 0.781-5.11 2.342c-1.394 1.547-2.091 3.452-2.091 5.715v12.934h-2.178z"></path>
</symbol>
<symbol id="slimMomDark" viewBox="0 0 33 32">
<path fill="#242424" style="fill: var(--color1, #242424)" opacity="0.137" d="M17.273 2c0 0.121 0 0.242 0 0.364-0.272-0.375-0.515-0.799-0.727-1.273 0.568-0.068 0.81 0.235 0.727 0.909z"></path>
<path fill="#dfdfdf" style="fill: var(--color2, #dfdfdf)" d="M17.273 2c1.615 1.783 1.857 3.783 0.727 6 0.19 0.204 0.311 0.447 0.364 0.727-0.538 0.662-1.023 1.328-1.455 2-0.534 0.945-0.898 0.824-1.091-0.364 0-0.121 0-0.242 0-0.364 0.305-0.124 0.426-0.367 0.364-0.727 0.242 0 0.364-0.121 0.364-0.364 0-0.121 0-0.242 0-0.364 1.067-1.929 1.31-3.99 0.727-6.182 0-0.121 0-0.242 0-0.364z"></path>
<path fill="#3f403f" style="fill: var(--color3, #3f403f)" opacity="0.016" d="M31.091 4.909c0.485 0.242 0.485 0.242 0 0z"></path>
<path fill="#e4e4e4" style="fill: var(--color4, #e4e4e4)" d="M31.091 5.273c-1.115 2.159-1.6 4.462-1.455 6.909-0.419 0.409-0.783 0.409-1.091 0-0.549-2.858 0.3-5.161 2.545-6.909z"></path>
<path fill="#70af20" style="fill: var(--color5, #70af20)" opacity="0.959" d="M16.545 8.545c0 0.121 0 0.242 0 0.364-0.242 0-0.364 0.121-0.364 0.364 0.062 0.361-0.059 0.603-0.364 0.727-0.469-0.086-0.833 0.035-1.091 0.364-1.089-0.075-2.059 0.167-2.909 0.727-0.121 0-0.242 0-0.364 0-1.333-0.242-2.667-0.485-4-0.727 0.578-0.047 1.063-0.289 1.455-0.727-0.97-0.606-1.939-1.212-2.909-1.818 0.177-0.726 0.601-1.211 1.273-1.455 1.686 0.661 3.262 1.509 4.727 2.545 1.51-0.755 3.025-0.876 4.545-0.364z"></path>
<path fill="#529b09" style="fill: var(--color6, #529b09)" opacity="0.864" d="M33.273 10.727c0 0.606 0 1.212 0 1.818-0.877 0.564-1.847 0.806-2.909 0.727-0.469-0.086-0.833 0.035-1.091 0.364-4.523 0.629-9.008 0.386-13.455-0.727-0.369-0.427-0.853-0.669-1.455-0.727-0.892-0.264-1.741-0.628-2.545-1.091 0.85-0.56 1.82-0.802 2.909-0.727 0.364 0.485 0.727 0.485 1.091 0 0.193 1.188 0.557 1.309 1.091 0.364 0.028 0.454 0.271 0.758 0.727 0.909 1.546 0.434 3.122 0.616 4.727 0.545 0.364 0.485 0.727 0.485 1.091 0 1.697 0.485 3.394 0.485 5.091 0 0.308 0.409 0.672 0.409 1.091 0 0.846-0.060 1.634-0.302 2.364-0.727 0.096-0.605-0.085-1.15-0.545-1.636 0.121-0.061 0.242-0.121 0.364-0.182 0.492 0.373 0.976 0.736 1.455 1.091z"></path>
<path fill="#95c53e" style="fill: var(--color7, #95c53e)" d="M7.455 10.364c1.333 0.242 2.667 0.485 4 0.727-3.658 1.502-7.416 2.714-11.273 3.636-0.112-0.881 0.009-1.73 0.364-2.545 2.356-0.437 4.659-1.043 6.909-1.818z"></path>
<path fill="#bdbdbd" style="fill: var(--color8, #bdbdbd)" d="M23.455 12.182c-0.364 0.485-0.727 0.485-1.091 0 0.364-0.485 0.727-0.485 1.091 0z"></path>
<path fill="#ebebeb" style="fill: var(--color9, #ebebeb)" d="M14.364 12.182c0.601 0.058 1.086 0.3 1.455 0.727-0.031 0.362 0.090 0.665 0.364 0.909 4.764 2.338 9.734 3.732 14.909 4.182-0.814-1.383-1.42-2.837-1.818-4.364 0.258-0.329 0.621-0.45 1.091-0.364 0.157 1.587 0.763 2.981 1.818 4.182-0.053 0.281-0.174 0.523-0.364 0.727 0.337 0.141 0.58 0.384 0.727 0.727-0.34 3.038-0.703 3.099-1.091 0.182-2.206-0.087-4.387 0.095-6.545 0.545-0.946 0.48-1.734 1.146-2.364 2 0.161 3.363 0.222 6.757 0.182 10.182-0.485 0-0.97 0-1.455 0 0.469-3.773 0.227-7.47-0.727-11.091 0.053-0.281 0.174-0.523 0.364-0.727-0.638-1.305-1.486-2.456-2.545-3.455-1.18-0.446-2.271-1.052-3.273-1.818-2.494 3.201-3.040 6.716-1.636 10.545 0.535 1.443 1.323 2.716 2.364 3.818-0.182 0.545-0.364 1.091-0.545 1.636-0.472-1.22-1.26-2.068-2.364-2.545-0.634-1.725-1.179-3.543-1.636-5.455-0.242-1.576-0.242-3.152 0-4.727 0.788-2.189 1.819-4.128 3.091-5.818z"></path>
</symbol>
</defs>
</svg>
