<svg aria-hidden="true" style="position: absolute; width: 0; height: 0; overflow: hidden;" version="1.1" xmlns="http://www.w3.org/2000/svg" xmlns:xlink="http://www.w3.org/1999/xlink">
<defs>
<symbol id="slimMomDark" viewBox="0 0 33 32">
<path fill="#242424" style="fill: var(--color1, #242424)" opacity="0.137" d="M17.273 2c0 0.121 0 0.242 0 0.364-0.272-0.375-0.515-0.799-0.727-1.273 0.568-0.068 0.81 0.235 0.727 0.909z"></path>
<path fill="#dfdfdf" style="fill: var(--color2, #dfdfdf)" d="M17.273 2c1.615 1.783 1.857 3.783 0.727 6 0.19 0.204 0.311 0.447 0.364 0.727-0.538 0.662-1.023 1.328-1.455 2-0.534 0.945-0.898 0.824-1.091-0.364 0-0.121 0-0.242 0-0.364 0.305-0.124 0.426-0.367 0.364-0.727 0.242 0 0.364-0.121 0.364-0.364 0-0.121 0-0.242 0-0.364 1.067-1.929 1.31-3.99 0.727-6.182 0-0.121 0-0.242 0-0.364z"></path>
<path fill="#3f403f" style="fill: var(--color3, #3f403f)" opacity="0.016" d="M31.091 4.909c0.485 0.242 0.485 0.242 0 0z"></path>
<path fill="#e4e4e4" style="fill: var(--color4, #e4e4e4)" d="M31.091 5.273c-1.115 2.159-1.6 4.462-1.455 6.909-0.419 0.409-0.783 0.409-1.091 0-0.549-2.858 0.3-5.161 2.545-6.909z"></path>
<path fill="#70af20" style="fill: var(--color5, #70af20)" opacity="0.959" d="M16.545 8.545c0 0.121 0 0.242 0 0.364-0.242 0-0.364 0.121-0.364 0.364 0.062 0.361-0.059 0.603-0.364 0.727-0.469-0.086-0.833 0.035-1.091 0.364-1.089-0.075-2.059 0.167-2.909 0.727-0.121 0-0.242 0-0.364 0-1.333-0.242-2.667-0.485-4-0.727 0.578-0.047 1.063-0.289 1.455-0.727-0.97-0.606-1.939-1.212-2.909-1.818 0.177-0.726 0.601-1.211 1.273-1.455 1.686 0.661 3.262 1.509 4.727 2.545 1.51-0.755 3.025-0.876 4.545-0.364z"></path>
<path fill="#529b09" style="fill: var(--color6, #529b09)" opacity="0.864" d="M33.273 10.727c0 0.606 0 1.212 0 1.818-0.877 0.564-1.847 0.806-2.909 0.727-0.469-0.086-0.833 0.035-1.091 0.364-4.523 0.629-9.008 0.386-13.455-0.727-0.369-0.427-0.853-0.669-1.455-0.727-0.892-0.264-1.741-0.628-2.545-1.091 0.85-0.56 1.82-0.802 2.909-0.727 0.364 0.485 0.727 0.485 1.091 0 0.193 1.188 0.557 1.309 1.091 0.364 0.028 0.454 0.271 0.758 0.727 0.909 1.546 0.434 3.122 0.616 4.727 0.545 0.364 0.485 0.727 0.485 1.091 0 1.697 0.485 3.394 0.485 5.091 0 0.308 0.409 0.672 0.409 1.091 0 0.846-0.060 1.634-0.302 2.364-0.727 0.096-0.605-0.085-1.15-0.545-1.636 0.121-0.061 0.242-0.121 0.364-0.182 0.492 0.373 0.976 0.736 1.455 1.091z"></path>
<path fill="#95c53e" style="fill: var(--color7, #95c53e)" d="M7.455 10.364c1.333 0.242 2.667 0.485 4 0.727-3.658 1.502-7.416 2.714-11.273 3.636-0.112-0.881 0.009-1.73 0.364-2.545 2.356-0.437 4.659-1.043 6.909-1.818z"></path>
<path fill="#bdbdbd" style="fill: var(--color8, #bdbdbd)" d="M23.455 12.182c-0.364 0.485-0.727 0.485-1.091 0 0.364-0.485 0.727-0.485 1.091 0z"></path>
<path fill="#ebebeb" style="fill: var(--color9, #ebebeb)" d="M14.364 12.182c0.601 0.058 1.086 0.3 1.455 0.727-0.031 0.362 0.090 0.665 0.364 0.909 4.764 2.338 9.734 3.732 14.909 4.182-0.814-1.383-1.42-2.837-1.818-4.364 0.258-0.329 0.621-0.45 1.091-0.364 0.157 1.587 0.763 2.981 1.818 4.182-0.053 0.281-0.174 0.523-0.364 0.727 0.337 0.141 0.58 0.384 0.727 0.727-0.34 3.038-0.703 3.099-1.091 0.182-2.206-0.087-4.387 0.095-6.545 0.545-0.946 0.48-1.734 1.146-2.364 2 0.161 3.363 0.222 6.757 0.182 10.182-0.485 0-0.97 0-1.455 0 0.469-3.773 0.227-7.47-0.727-11.091 0.053-0.281 0.174-0.523 0.364-0.727-0.638-1.305-1.486-2.456-2.545-3.455-1.18-0.446-2.271-1.052-3.273-1.818-2.494 3.201-3.040 6.716-1.636 10.545 0.535 1.443 1.323 2.716 2.364 3.818-0.182 0.545-0.364 1.091-0.545 1.636-0.472-1.22-1.26-2.068-2.364-2.545-0.634-1.725-1.179-3.543-1.636-5.455-0.242-1.576-0.242-3.152 0-4.727 0.788-2.189 1.819-4.128 3.091-5.818z"></path>
</symbol>
</defs>
</svg>
